# xmcd
#
# Track frame offsets:
#	150
#	13606
#	26218
#	36796
#	44441
#	55580
#	73646
#	83619
#	95757
#	112483
#	128216
#	145416
#	160126
#	173864
#	186429
#	202679
#	213637
#	223868
#	237013
#	251214
#
# Disc length: 3496 seconds
#
# Revision: 0
# Processed by: cddbd v1.5.2PL0 Copyright (c) Steve Scherf et al.
# Submitted via: audiograbber 1.83.01
#
DISCID=2d0da614
DTITLE=Freddy Quinn - Schön war die Zeit CD 4
DYEAR=1900
DGENRE=
TTITLE0=Country Road
TTITLE1=5000 Meilen von zu Haus
TTITLE2=Bombay Bill
TTITLE3=Columbus Stockade Blues
TTITLE4=Ramona
TTITLE5=Der Groschen fällt manchmal  zu spät
TTITLE6=Die blaue Grenze
TTITLE7=Ein armer Mulero
TTITLE8=Ein ausgedienter Zug
TTITLE9=Gib mir dein Wort
TTITLE10=Gib mir ein Zuhaus
TTITLE11=Glory Glory Halleluja
TTITLE12=Green grass of home (deutsch)
TTITLE13=Ich bin ein Vagabund
TTITLE14=Wolga Lied
TTITLE15=I`ll hold you in my heart
TTITLE16=Oh my Darling Clementine
TTITLE17=Muß i denn zum Städele hinaus
TTITLE18=Man ist so jung wie man sich fühlt
TTITLE19=Der kleine Trommler
EXTD=
EXTT0=
EXTT1=
EXTT2=
EXTT3=
EXTT4=
EXTT5=
EXTT6=
EXTT7=
EXTT8=
EXTT9=
EXTT10=
EXTT11=
EXTT12=
EXTT13=
EXTT14=
EXTT15=
EXTT16=
EXTT17=
EXTT18=
EXTT19=
PLAYORDER=
